<?xml version="1.0" encoding="iso-8859-1"?>
<!-- Generator: Adobe Illustrator 19.0.0, SVG Export Plug-In . SVG Version: 6.00 Build 0)  -->
<svg version="1.1" id="Capa_1" xmlns="http://www.w3.org/2000/svg" xmlns:xlink="http://www.w3.org/1999/xlink" x="0px" y="0px"
	 viewBox="0 0 512 512" style="enable-background:new 0 0 512 512;" xml:space="preserve">
<path style="fill:#AAAAA0;" d="M101.5,150c0-9.941,8.059-18,18-18h244c9.941,0,18,8.059,18,18v22h-280V150z"/>
<path style="fill:#FA9600;" d="M134.5,110c0-9.941,8.059-18,18-18h178c9.941,0,18,8.059,18,18v22h-214V110z"/>
<rect x="211.5" y="52" style="fill:#E6E6E6;" width="60" height="40"/>
<rect x="206.5" y="10" style="fill:#FA9600;" width="70" height="42"/>
<path style="fill:#E6E6E6;" d="M147.053,214c18.493,0,23.777,26.419,46.233,26.419S221.026,214,243.481,214
	s22.456,26.419,43.591,26.419S312.17,214,334.626,214c17.862,0,23.922,21.463,42.362,25.692L381.5,172h-280l4.518,67.768
	C125.466,235.706,130.291,214,147.053,214z"/>
<path style="fill:#5AD2E6;" d="M334.626,214c-22.456,0-26.419,26.419-47.554,26.419S265.937,214,243.481,214
	s-27.74,26.419-50.195,26.419S165.547,214,147.053,214c-16.763,0-21.588,21.706-41.036,25.768L123.5,502h236l17.487-262.308
	C358.547,235.463,352.488,214,334.626,214z"/>
<path d="M420.5,51c0-28.122-22.878-51-51-51h-198c-5.523,0-10,4.477-10,10s4.477,10,10,10h25v32c0,3.699,2.014,6.922,5,8.651V82h-49
	c-15.439,0-28,12.561-28,28v12h-5c-15.439,0-28,12.561-28,28v22c0,0.09,22.022,330.665,22.022,330.665
	c0.351,5.253,4.713,9.335,9.978,9.335h236c5.265,0,9.627-4.082,9.978-9.335c0,0,22.022-330.514,22.022-330.665v-22
	c0-15.439-12.561-28-28-28h-5v-12c0-2.78-0.413-5.464-1.171-8H369.5C397.622,102,420.5,79.122,420.5,51z M216.5,42V20h50v22H216.5z
	 M261.5,62v20h-40V62H261.5z M144.5,110c0-4.411,3.589-8,8-8h178c4.411,0,8,3.589,8,8v12h-194V110z M350.145,492h-217.29
	l-16.35-245.248c7.789-3.63,13.271-9.308,17.901-14.104c5.487-5.683,8.542-8.648,12.647-8.648c4.358,0,7.805,3.33,13.523,9.216
	c7.052,7.26,16.709,17.202,32.709,17.202c15.228,0,24.524-8.854,31.994-15.968c7.008-6.674,11.309-10.451,18.201-10.451
	c6.398,0,9.325,3.205,14.823,9.872c5.759,6.983,13.646,16.547,28.768,16.547c14.625,0,23.233-8.833,30.15-15.929
	c6.53-6.699,10.558-10.489,17.404-10.489c5.128,0,8.869,3.416,15.04,9.452c4.49,4.393,9.79,9.578,16.846,13.048L350.145,492z
	 M368.054,223.353c-1.443-1.302-2.893-2.72-4.403-4.197C356.75,212.403,348.16,204,334.625,204c-15.616,0-24.548,9.166-31.726,16.53
	c-6.155,6.315-9.925,9.889-15.827,9.889c-5.202,0-7.789-2.542-13.337-9.271c-5.968-7.237-14.14-17.147-30.253-17.147
	c-15.228,0-24.524,8.854-31.995,15.968c-7.008,6.674-11.309,10.451-18.201,10.451c-7.181,0-11.656-4.232-18.363-11.137
	C168.31,212.473,160.079,204,147.054,204c-12.788,0-20.687,8.182-27.035,14.756c-1.725,1.787-3.371,3.491-5.045,5.018L112.189,182
	h258.622L368.054,223.353z M363.5,142c4.411,0,8,3.589,8,8v12h-260v-12c0-4.411,3.589-8,8-8H363.5z M281.5,82V60.651
	c2.986-1.73,5-4.952,5-8.651V20h83c17.093,0,31,13.907,31,31s-13.907,31-31,31H281.5z"/>
<path d="M285.5,442h-44c-5.523,0-10,4.477-10,10s4.477,10,10,10h44c5.523,0,10-4.477,10-10S291.023,442,285.5,442z"/>
<path d="M318.5,402h-77c-5.523,0-10,4.477-10,10s4.477,10,10,10h77c5.523,0,10-4.477,10-10S324.023,402,318.5,402z"/>
<path d="M241.5,382h44c5.523,0,10-4.477,10-10s-4.477-10-10-10h-44c-5.523,0-10,4.477-10,10S235.977,382,241.5,382z"/>
<path d="M318.5,322h-77c-5.523,0-10,4.477-10,10s4.477,10,10,10h77c5.523,0,10-4.477,10-10S324.023,322,318.5,322z"/>
<path d="M317.5,300c5.51,0,10-4.49,10-10s-4.49-10-10-10s-10,4.49-10,10S311.99,300,317.5,300z"/>
<path d="M241.5,300h36c5.51,0,10-4.49,10-10s-4.49-10-10-10h-36c-5.51,0-10,4.49-10,10S235.99,300,241.5,300z"/>
<g>
</g>
<g>
</g>
<g>
</g>
<g>
</g>
<g>
</g>
<g>
</g>
<g>
</g>
<g>
</g>
<g>
</g>
<g>
</g>
<g>
</g>
<g>
</g>
<g>
</g>
<g>
</g>
<g>
</g>
</svg>
