<?xml version="1.0" encoding="iso-8859-1"?>
<!-- Generator: Adobe Illustrator 19.0.0, SVG Export Plug-In . SVG Version: 6.00 Build 0)  -->
<svg version="1.1" id="Capa_1" xmlns="http://www.w3.org/2000/svg" xmlns:xlink="http://www.w3.org/1999/xlink" x="0px" y="0px"
	 viewBox="0 0 512 512" style="enable-background:new 0 0 512 512;" xml:space="preserve">
<path style="fill:#6E6E6E;" d="M460,189c-14.5-14.5-14-56-14-56H66c0,0,0.5,41.5-14,56c-18.385,18.385-42,22.804-42,46v232.667
	C10,486.628,25.372,502,44.333,502h423.333C486.628,502,502,486.628,502,467.667V235C502,211.804,478.385,207.385,460,189z"/>
<rect x="56" y="238" style="fill:#5AA096;" width="400" height="143"/>
<rect x="56" y="381" style="fill:#E6E6E6;" width="400" height="40"/>
<path style="fill:#AAAAA0;" d="M466,133H46V48.167C46,27.088,63.088,10,84.167,10h343.667C448.912,10,466,27.088,466,48.167V133z"/>
<path d="M484.759,195.724c-5.999-4.085-12.202-8.309-17.688-13.795c-6.678-6.677-9.849-24.622-10.776-38.929H466
	c5.523,0,10-4.477,10-10V48.167C476,21.607,454.393,0,427.833,0H84.167C57.607,0,36,21.607,36,48.167V133c0,5.523,4.477,10,10,10
	h9.678c-0.926,13.587-3.948,32.128-10.749,38.929c-5.486,5.486-11.688,9.71-17.688,13.795C14.473,204.42,0,214.276,0,235v232.667
	C0,492.112,19.888,512,44.333,512h423.333C492.112,512,512,492.112,512,467.667V235C512,214.276,497.527,204.42,484.759,195.724z
	 M56,48.167C56,32.635,68.635,20,84.167,20h343.667C443.365,20,456,32.635,456,48.167V123H56V48.167z M467.667,492H44.333
	c-11.938,0-21.888-8.644-23.939-20H216c5.51,0,10-4.49,10-10s-4.49-10-10-10H20V235c0-9.715,6.005-14.236,18.499-22.745
	c6.448-4.391,13.756-9.368,20.572-16.184c12.55-12.55,15.826-38.487,16.659-53.071h47.309l-32.582,37.435
	c-3.626,4.166-3.188,10.482,0.977,14.108c3.982,3.466,10.513,3.154,14.109-0.977L149.554,143h33.485l-32.582,37.435
	c-3.626,4.166-3.188,10.482,0.977,14.108c4.004,3.486,10.489,3.181,14.109-0.977L209.554,143h33.485l-32.582,37.435
	c-3.626,4.166-3.188,10.482,0.977,14.108c4.01,3.491,10.488,3.182,14.109-0.977L269.554,143h33.485l-32.582,37.435
	c-3.626,4.166-3.188,10.482,0.977,14.108c4.006,3.487,10.493,3.177,14.109-0.977L329.554,143h33.485l-32.582,37.435
	c-3.626,4.166-3.188,10.482,0.977,14.108c4.004,3.486,10.495,3.175,14.109-0.977L389.554,143h33.485l-32.582,37.435
	c-3.626,4.166-3.188,10.482,0.977,14.108c4,3.482,10.492,3.179,14.109-0.977l32.061-36.837c1.93,13.823,6.145,30.163,15.324,39.343
	c6.816,6.816,14.125,11.793,20.572,16.184C485.995,220.764,492,225.285,492,235v217H296c-5.51,0-10,4.49-10,10s4.49,10,10,10
	h195.606C489.555,483.356,479.604,492,467.667,492z"/>
<path d="M96,101c5.523,0,10-4.477,10-10V55c0-5.523-4.477-10-10-10s-10,4.477-10,10v36C86,96.523,90.477,101,96,101z"/>
<path d="M136,101c5.523,0,10-4.477,10-10V55c0-5.523-4.477-10-10-10s-10,4.477-10,10v36C126,96.523,130.477,101,136,101z"/>
<path d="M176,101c5.523,0,10-4.477,10-10V55c0-5.523-4.477-10-10-10s-10,4.477-10,10v36C166,96.523,170.477,101,176,101z"/>
<path d="M216,101c5.523,0,10-4.477,10-10V55c0-5.523-4.477-10-10-10s-10,4.477-10,10v36C206,96.523,210.477,101,216,101z"/>
<path d="M256,101c5.523,0,10-4.477,10-10V55c0-5.523-4.477-10-10-10s-10,4.477-10,10v36C246,96.523,250.477,101,256,101z"/>
<path d="M296,101c5.523,0,10-4.477,10-10V55c0-5.523-4.477-10-10-10s-10,4.477-10,10v36C286,96.523,290.477,101,296,101z"/>
<path d="M336,101c5.523,0,10-4.477,10-10V55c0-5.523-4.477-10-10-10s-10,4.477-10,10v36C326,96.523,330.477,101,336,101z"/>
<path d="M376,101c5.523,0,10-4.477,10-10V55c0-5.523-4.477-10-10-10s-10,4.477-10,10v36C366,96.523,370.477,101,376,101z"/>
<path d="M416,101c5.523,0,10-4.477,10-10V55c0-5.523-4.477-10-10-10s-10,4.477-10,10v36C406,96.523,410.477,101,416,101z"/>
<path d="M256,452c-5.51,0-10,4.49-10,10s4.49,10,10,10c5.51,0,10-4.49,10-10S261.51,452,256,452z"/>
<path d="M162.69,306.023c6.119-2.663,9.18-8.316,9.18-16.956c0-12.815-7.201-19.224-21.6-19.224h-22.14
	c-3.148,0-7.344,1.444-7.344,5.184c0,0,0,68.038,0,68.683c0,3.654,4.393,5.081,7.344,5.081c0,0,23.936,0,23.976,0
	c14.15,0,21.708-9.764,21.708-23.22c0,0,0-2.268,0-2.269C173.814,315.181,170.447,308.914,162.69,306.023z M137.526,284.531
	c0,0,11.287,0,11.34,0c4.043,0,6.156,3.934,6.156,7.559c0,3.553-2.16,7.452-6.156,7.452h-11.34V284.531z M156.966,324.167
	c0,6.625-2.881,9.936-8.64,9.936h-10.8v-21.6h10.8c5.759,0,8.64,3.313,8.64,9.936V324.167z"/>
<path d="M216.365,284.531c6.191,0,9.396,3.24,9.612,9.72c0.216,3.385,3.024,5.076,8.424,5.076c5.544,0,8.424-2.412,8.424-7.992
	c0-14.568-14.273-21.493-27.108-21.493c-7.705,0-13.951,2.052-18.738,6.156c-4.789,4.104-7.182,10.548-7.182,19.332v28.62
	c0,8.785,2.393,15.228,7.182,19.332c4.788,4.104,11.033,6.156,18.738,6.156c13.606,0,27.108-7.675,27.108-22.571
	c0-5.656-3.018-7.993-8.532-7.993c-5.255,0-8.028,1.692-8.316,5.074c-0.517,6.066-2.735,10.802-9.504,10.802
	c-6.553,0-9.828-3.6-9.828-10.8v-28.62C206.645,288.132,209.885,284.531,216.365,284.531z"/>
<path d="M296.393,274.811c-1.327-4.327-7.108-5.616-11.016-5.616c-4.007,0-9.625,1.268-11.016,5.616c0,0-20.044,65.736-20.088,65.88
	c-0.8,2.622,1.131,4.785,3.294,6.048c3.146,1.838,11.365,4.11,12.798-1.08l3.672-13.5h22.788c0,0,3.654,13.433,3.672,13.5
	c1.416,5.205,9.707,2.887,12.798,1.08c2.254-1.318,3.968-3.339,3.294-6.048C316.588,340.691,296.46,275.029,296.393,274.811z
	 M277.493,319.199l7.884-28.944l7.884,28.944H277.493z"/>
<path d="M368.104,274.811c-1.302-4.245-7.13-5.616-11.016-5.616c-3.915,0-9.62,1.253-11.016,5.616c0,0-20.026,65.678-20.088,65.879
	c-0.803,2.634,1.109,4.773,3.294,6.049c3.151,1.841,11.369,4.093,12.799-1.08l3.672-13.5h22.788l3.672,13.5
	c1.431,5.197,9.703,2.889,12.798,1.08c2.109-1.233,3.946-3.429,3.294-6.048C388.299,340.691,368.162,275.002,368.104,274.811z
	 M349.204,319.199l7.884-28.944l7.884,28.944H349.204z"/>
<path d="M466,421V238c0-5.523-4.477-10-10-10H56c-5.523,0-10,4.477-10,10v183c0,5.523,4.477,10,10,10h400
	C461.523,431,466,426.523,466,421z M66,248h380v123H66V248z M446,411H66v-20h380V411z"/>
<g>
</g>
<g>
</g>
<g>
</g>
<g>
</g>
<g>
</g>
<g>
</g>
<g>
</g>
<g>
</g>
<g>
</g>
<g>
</g>
<g>
</g>
<g>
</g>
<g>
</g>
<g>
</g>
<g>
</g>
</svg>
