<?xml version="1.0" encoding="iso-8859-1"?>
<!-- Generator: Adobe Illustrator 19.0.0, SVG Export Plug-In . SVG Version: 6.00 Build 0)  -->
<svg version="1.1" id="Capa_1" xmlns="http://www.w3.org/2000/svg" xmlns:xlink="http://www.w3.org/1999/xlink" x="0px" y="0px"
	 viewBox="0 0 512 512" style="enable-background:new 0 0 512 512;" xml:space="preserve">
<path style="fill:#FA9600;" d="M463,94H113V48.167C113,27.088,130.088,10,151.167,10h273.667C445.912,10,463,27.088,463,48.167V94z"
	/>
<path style="fill:#6E6E6E;" d="M420,134V94H146v40c0,0-56,0-56,33v300.667C90,486.628,105.372,502,124.333,502h317.333
	C460.628,502,476,486.628,476,467.667V167C476,134,420,134,420,134z"/>
<g>
	<polygon style="fill:#E6E6E6;" points="90,332 337,332 476,332 476,214 90,214 	"/>
	<polygon style="fill:#E6E6E6;" points="295,382 379,382 337,332 	"/>
</g>
<path style="fill:#FA9600;" d="M56,382c-11.046,0-20,8.954-20,20s8.954,20,20,20h218.667l9.115,54.692
	C286.216,491.296,298.851,502,313.657,502h46.687c14.805,0,27.441-10.704,29.875-25.308L406,382H56z"/>
<path d="M159.486,248.102c-3.354-2.886-7.813-4.329-13.377-4.329c0,0-16.146,0-16.147,0c-2.121,0-4.523,1.281-4.523,3.666
	c0,0,0,49.29,0,49.607c0,2.958,3.776,3.745,6.084,3.745c2.327,0,6.084-0.764,6.084-3.744v-16.848h7.723
	c5.771,0,10.412-1.469,13.922-4.407c3.511-2.937,5.266-7.5,5.266-13.689v-0.39C164.518,255.525,162.84,250.988,159.486,248.102z
	 M152.35,263.039c0,5.2-2.34,7.8-7.02,7.8h-7.723v-16.458h7.723c4.68,0,7.02,2.601,7.02,7.8V263.039z"/>
<path d="M205.311,276.299c6.291-2.443,9.438-7.722,9.438-15.834c0-11.127-6.396-16.692-19.188-16.692c0,0-16.141,0-16.146,0
	c-1.967,0-3.744,1.577-3.744,3.666c0,0,0,49.442,0,49.607c0,2.968,3.783,3.745,6.084,3.745c2.29,0,6.084-0.832,6.084-3.744v-18.798
	h5.148c0,0,10.622,20.624,10.685,20.747c1.843,3.578,6.617,2.275,9.088,0.234c1.429-1.179,3.433-3.778,2.066-5.694L205.311,276.299z
	 M200.554,266.983c-1.205,1.2-2.907,1.906-4.994,1.906h-7.723v-14.508c0,0,7.697,0,7.723,0c4.44,0,7.02,2.832,7.02,7.254
	C202.58,263.813,201.857,265.686,200.554,266.983z"/>
<path d="M259.521,248.219c-3.484-2.964-8.14-4.446-13.962-4.446c-4.919,0-10.431,1.33-14.243,4.762
	c-3.79,3.412-4.868,8.759-4.868,13.646c0,0,0,20.649,0,20.67c0,11.489,7.741,18.408,19.11,18.408c5.15,0,10.682-1.292,14.513-4.945
	c3.627-3.458,4.674-8.634,4.674-13.463v-20.67C264.746,255.837,263.004,251.183,259.521,248.219z M252.578,282.851
	c0,5.2-2.34,7.8-7.02,7.8c-4.629,0-6.942-2.6-6.942-7.8v-20.67c0-5.199,2.313-7.8,6.942-7.8c4.68,0,7.02,2.601,7.02,7.8V282.851z"/>
<path d="M312.17,243.773c0,0-33.452,0-33.695,0c-2.66,0-3.667,3.029-3.667,5.228c0,2.124,0.977,5.38,3.666,5.38h10.765
	c0,0,0,42.377,0,42.639c0,2.928,3.819,3.771,6.084,3.771c2.322,0,6.084-0.799,6.084-3.77V254.38c0,0,10.674,0,10.763,0
	c2.702,0,3.667-3.186,3.667-5.379C315.836,246.845,314.856,243.773,312.17,243.773z"/>
<path d="M359.594,254.381c2.724-0.001,3.666-3.171,3.666-5.382c0-2.255-0.967-5.226-3.666-5.226h-27.769
	c-2.286,0-5.304,1.02-5.304,3.744c0,0,0,49.207,0,49.528c0,2.713,3.057,3.746,5.304,3.746c0,0,27.57,0,27.767,0
	c2.673,0,3.667-3.015,3.667-5.226c0-2.226-0.964-5.382-3.666-5.382h-20.904v-13.26c0,0,11.658,0,11.699,0
	c2.404,0,3.666-2.377,3.666-4.601c0-2.089-1.184-4.758-3.666-4.758h-11.699v-13.182
	C338.689,254.381,359.435,254.381,359.594,254.381z"/>
<path d="M384.786,244.712c-1.299-0.707-3.039-0.939-4.29-0.939c-2.276,0-6.084,0.724-6.084,3.666c0,0,0,49.464,0,49.608
	c0,2.94,3.814,3.744,6.084,3.744c2.324,0,6.084-0.769,6.084-3.744c0,0,0-49.287,0-49.607
	C386.58,246.145,385.824,245.276,384.786,244.712z"/>
<path d="M438.908,244.729c-1.304-0.712-3.047-0.956-4.282-0.956c-2.277,0-6.084,0.714-6.084,3.666v26.52l-12.635-24.102
	c-1.404-2.703-2.666-4.394-3.783-5.07c-1.119-0.675-2.848-1.014-5.188-1.014c-2.285,0-6.084,0.85-6.084,3.744c0,0,0,49.194,0,49.528
	c0,2.921,3.832,3.746,6.084,3.746c2.307,0,6.084-0.784,6.084-3.744v-26.52l14.82,26.988c1.195,2.184,3.457,3.276,6.785,3.276
	c2.3,0,6.084-0.798,6.084-3.744c0,0,0-49.223,0-49.606C440.711,246.163,439.949,245.297,438.908,244.729z"/>
<path d="M175,452c-5.51,0-10,4.49-10,10s4.49,10,10,10s10-4.49,10-10S180.51,452,175,452z"/>
<path d="M450.826,128.533c-7.58-2.233-15.106-3.367-20.826-3.941V104h33c5.522,0,10-4.477,10-10V48.167
	C473,21.607,451.393,0,424.833,0H151.167C124.607,0,103,21.607,103,48.167V94c0,5.523,4.478,10,10,10h23v20.591
	c-5.72,0.575-13.246,1.708-20.826,3.941C84.569,137.55,80,156.504,80,167v205H56c-16.542,0-30,13.458-30,30s13.458,30,30,30h24
	v35.667C80,492.112,99.888,512,124.333,512h317.334C466.112,512,486,492.112,486,467.667V167
	C486,156.504,481.431,137.55,450.826,128.533z M123,84V48.167C123,32.635,135.636,20,151.167,20h273.666
	C440.364,20,453,32.635,453,48.167V84h-42.607l16.429-16.429c3.905-3.905,3.905-10.237,0-14.143c-3.906-3.905-10.236-3.905-14.143,0
	L382.107,84h-31.715l16.429-16.429c3.905-3.905,3.905-10.237,0-14.143c-3.906-3.905-10.236-3.905-14.143,0L322.107,84h-31.715
	l16.429-16.429c3.905-3.905,3.905-10.237,0-14.143c-3.906-3.905-10.236-3.905-14.143,0L262.107,84h-31.715l16.429-16.429
	c3.905-3.905,3.905-10.237,0-14.143c-3.906-3.905-10.236-3.905-14.143,0L202.107,84h-31.715l16.429-16.429
	c3.905-3.905,3.905-10.237,0-14.143c-3.906-3.905-10.236-3.905-14.143,0L142.107,84H123z M100,224h365v98H100V224z M357.54,372
	h-41.08L337,347.547L357.54,372z M100,342h215.54l-25.2,30H100V342z M124.333,492c-11.938,0-21.888-8.644-23.939-20H135
	c5.51,0,10-4.49,10-10s-4.49-10-10-10h-35v-20h166.195l3.333,20H215c-5.51,0-10,4.49-10,10s4.49,10,10,10h57.862
	c1.171,7.027,2.33,13.739,5.961,20H124.333z M380.354,475.049c-1.637,9.822-10.052,16.951-20.01,16.951h-46.688
	c-9.958,0-18.373-7.129-20.01-16.952l-9.115-54.692c-0.804-4.822-4.976-8.356-9.864-8.356H56c-5.514,0-10-4.486-10-10
	s4.486-10,10-10h338.195L380.354,475.049z M441.667,492c0,0-46.484,0-46.49,0c2.823,0,5.247-15.715,5.961-20h64.468
	C463.555,483.356,453.604,492,441.667,492z M466,452h-61.529c0,0,11.363-68.177,11.393-68.356C416.858,377.68,412.011,372,406,372
	h-22.34l-25.2-30H466V452z M466,204H100v-20h190c5.51,0,10-4.49,10-10s-4.49-10-10-10H100.293c3.893-19.323,45.28-19.999,45.707-20
	h164c5.522,0,10-4.477,10-10s-4.478-10-10-10H156v-20h254v20h-56c-5.522,0-10,4.477-10,10s4.478,10,10,10
	c21.402,0,42.818-0.241,64.219,0c14.244,0.161,43.902,2.201,47.488,20H370c-5.521,0-10,4.49-10,10s4.479,10,10,10h96V204z"/>
<path d="M330,164c-5.521,0-10,4.49-10,10s4.479,10,10,10c5.51,0,10-4.49,10-10S335.51,164,330,164z"/>
<g>
</g>
<g>
</g>
<g>
</g>
<g>
</g>
<g>
</g>
<g>
</g>
<g>
</g>
<g>
</g>
<g>
</g>
<g>
</g>
<g>
</g>
<g>
</g>
<g>
</g>
<g>
</g>
<g>
</g>
</svg>
