<?xml version="1.0" encoding="iso-8859-1"?>
<!-- Generator: Adobe Illustrator 19.0.0, SVG Export Plug-In . SVG Version: 6.00 Build 0)  -->
<svg version="1.1" id="Capa_1" xmlns="http://www.w3.org/2000/svg" xmlns:xlink="http://www.w3.org/1999/xlink" x="0px" y="0px"
	 viewBox="0 0 512 512" style="enable-background:new 0 0 512 512;" xml:space="preserve">
<path style="fill:#FA9600;" d="M460.76,369.629L372,217H140L51.24,369.629C43.903,380.968,40,394.185,40,407.689V462h432v-54.311
	C472,394.185,468.097,380.968,460.76,369.629z"/>
<path style="fill:#E6E6E6;" d="M256,259c-44.183,0-80,35.817-80,80s35.817,80,80,80s80-35.817,80-80S300.183,259,256,259z"/>
<circle style="fill:#6E6E6E;" cx="256" cy="339" r="20"/>
<rect x="40" y="462" style="fill:#A8A89E;" width="432" height="40"/>
<rect x="236" y="177" style="fill:#6E6E6E;" width="40" height="40"/>
<path style="fill:#FA9600;" d="M226.822,137h116.833l48.055-69.573l-28.714-28.714l-69.63,38.095
	c-19.037,7.96-38.494,8.417-50.5,7.623C242.946,85.611,243,86.798,243,88c0,14.986-6.282,34.531-16.177,48.992L226.822,137z"/>
<rect x="371.403" y="18.412" transform="matrix(-0.7071 -0.7071 0.7071 -0.7071 641.3089 343.0687)" style="fill:#994C14;" width="40.607" height="40.607"/>
<path style="fill:#EC3C32;" d="M226.818,137C236.716,122.538,243,102.989,243,88c0-27.062-20.479-49-45.742-49
	c-11.13,0-21.328,4.262-29.258,11.34C160.069,43.262,149.871,39,138.742,39C113.479,39,93,60.938,93,88
	c0,14.989,6.284,34.538,16.182,49H226.818z"/>
<polygon style="fill:#A8A89E;" points="77,137 97,177 415,177 435,137 "/>
<path d="M469.289,364.403l-88.644-152.431C378.854,208.895,375.562,207,372,207h-86v-20h129c3.788,0,7.25-2.14,8.944-5.528
	c0,0,19.968-39.936,20-40C447.193,134.974,442.205,127,435,127h-72.284l36.71-53.146c0,0,27.978-27.978,28.069-28.068
	c3.782-3.782,3.761-10.38,0.001-14.143c0,0-28.627-28.628-28.713-28.714c-3.812-3.812-10.346-3.796-14.143,0l-27.699,27.7
	L289.04,67.778c-13.219,5.432-26.709,6.915-37.484,6.929C245.842,48.557,223.675,29,197.258,29c-7.708,0-15.285,1.701-22.258,4.914
	V10c0-5.522-4.477-10-10-10s-10,4.478-10,10v21.578C149.765,29.888,144.288,29,138.742,29C108.006,29,83,55.467,83,88
	c0,12.07,3.441,26.169,9.222,39c0,0-15.185,0-15.222,0c-7.297,0-12.21,7.941-8.944,14.472l20,40C89.75,184.86,93.212,187,97,187h129
	v20h-86c-3.562,0-6.854,1.895-8.645,4.973l-88.644,152.43C34.395,377.342,30,392.305,30,407.689V502c0,5.522,4.477,10,10,10h432
	c5.523,0,10-4.478,10-10v-94.311C482,392.305,477.605,377.342,469.289,364.403z M391.71,24.143l14.571,14.571L391.71,53.285
	l-14.57-14.572L391.71,24.143z M297.225,86.034c0.322-0.134,63.999-34.952,63.999-34.952l17.521,17.521L338.409,127h-94.621
	c0.041-0.091,7.775-21.081,8.849-32.002c0.01-0.097,0.026-0.196,0.035-0.292C265.465,94.582,281.416,92.646,297.225,86.034z
	 M103.16,88.004c0.182-7.399,1.909-14.734,5.551-21.145c9.38-16.514,31.898-23.523,48.062-12.364
	c3.784,2.612,7.557,6.25,12.138,5.85c3.663-0.321,6.504-3.163,9.466-5.342c8.416-6.194,19.994-7.575,29.841-4.08
	c20.128,7.145,27.612,29.916,23.634,49.526c-1.902,9.374-5.872,18.216-10.541,26.563c-35.524-0.004-71.048-0.008-106.572-0.013
	c-5.219-9.165-9.441-19.044-10.985-29.477C103.29,94.383,103.082,91.187,103.16,88.004z M93.18,147h325.64l-10,20H103.18L93.18,147z
	 M246,187h20v20h-20V187z M59.635,375.063c0.086-0.133,0.169-0.269,0.249-0.405L145.752,227h220.495l85.868,147.657
	c0.08,0.137,0.163,0.272,0.249,0.405c6.303,9.741,9.635,21.023,9.635,32.627V412h-66c-5.51,0-10,4.49-10,10s4.49,10,10,10h66v20H50
	v-20h66c5.51,0,10-4.49,10-10s-4.49-10-10-10H50v-4.311C50,396.086,53.332,384.804,59.635,375.063z M462,492H50v-20h412V492z"/>
<path d="M156,432c5.51,0,10-4.49,10-10s-4.49-10-10-10s-10,4.49-10,10S150.49,432,156,432z"/>
<path d="M356,432c5.51,0,10-4.49,10-10s-4.49-10-10-10c-5.52,0-10,4.49-10,10S350.48,432,356,432z"/>
<path d="M256,429c49.626,0,90-40.374,90-90s-40.374-90-90-90s-90,40.374-90,90S206.374,429,256,429z M256,269
	c38.598,0,70,31.402,70,70s-31.402,70-70,70s-70-31.402-70-70S217.402,269,256,269z"/>
<path d="M256,369c16.542,0,30-13.458,30-30c0-5.154-1.307-10.009-3.607-14.25l6.678-6.678c3.905-3.905,3.905-10.237,0-14.143
	c-3.905-3.904-10.237-3.904-14.143,0l-7.384,7.384C263.989,309.825,260.089,309,256,309c-16.542,0-30,13.458-30,30
	S239.458,369,256,369z M256,329c5.514,0,10,4.486,10,10s-4.486,10-10,10s-10-4.486-10-10S250.486,329,256,329z"/>
<g>
</g>
<g>
</g>
<g>
</g>
<g>
</g>
<g>
</g>
<g>
</g>
<g>
</g>
<g>
</g>
<g>
</g>
<g>
</g>
<g>
</g>
<g>
</g>
<g>
</g>
<g>
</g>
<g>
</g>
</svg>
