<?xml version="1.0" encoding="iso-8859-1"?>
<!-- Generator: Adobe Illustrator 19.0.0, SVG Export Plug-In . SVG Version: 6.00 Build 0)  -->
<svg version="1.1" id="Layer_1" xmlns="http://www.w3.org/2000/svg" xmlns:xlink="http://www.w3.org/1999/xlink" x="0px" y="0px"
	 viewBox="0 0 512 512" style="enable-background:new 0 0 512 512;" xml:space="preserve">
<g>
	<path style="fill:#F2F2F2;" d="M397.333,512h-281.6C104,512,94.4,502.4,94.4,490.667V184.533c0-12.8,3.2-25.6,8.533-37.333l0,0
		c13.867-28.8,43.733-45.867,74.667-45.867h155.733c32,0,60.8,18.133,74.667,45.867l0,0c5.333,11.733,8.533,24.533,8.533,37.333
		v306.133C418.667,502.4,409.067,512,397.333,512z"/>
	<rect x="178.667" y="86.4" style="fill:#F2F2F2;" width="155.733" height="13.867"/>
</g>
<path style="fill:#40596B;" d="M340.8,0H166.933c-6.4,0-10.667,4.267-10.667,10.667v65.067c0,6.4,4.267,10.667,10.667,10.667h172.8
	c6.4,0,10.667-4.267,10.667-10.667V10.667C351.467,4.267,346.133,0,340.8,0z"/>
<rect x="94.4" y="210.133" style="fill:#F8B64C;" width="323.2" height="190.933"/>
<rect x="94.4" y="219.733" style="fill:#FFD15C;" width="323.2" height="173.867"/>
<g>
	<rect x="173.333" y="17.067" style="fill:#334A5E;" width="12.8" height="51.2"/>
	<rect x="222.4" y="17.067" style="fill:#334A5E;" width="12.8" height="51.2"/>
	<rect x="272.533" y="17.067" style="fill:#334A5E;" width="12.8" height="51.2"/>
	<rect x="321.6" y="17.067" style="fill:#334A5E;" width="12.8" height="51.2"/>
</g>
<path style="fill:#FF7058;" d="M300.267,314.667L270.4,300.8l29.867-64c1.067-2.133-2.133-5.333-4.267-3.2l-84.267,58.667
	c-2.133,1.067-1.067,4.267,0,5.333l29.867,13.867l-29.867,64c-1.067,2.133,2.133,5.333,4.267,3.2L300.267,320
	C302.4,318.933,302.4,315.733,300.267,314.667z"/>
<g>
</g>
<g>
</g>
<g>
</g>
<g>
</g>
<g>
</g>
<g>
</g>
<g>
</g>
<g>
</g>
<g>
</g>
<g>
</g>
<g>
</g>
<g>
</g>
<g>
</g>
<g>
</g>
<g>
</g>
</svg>
